:FULLY-SPECIFIED
:FORCE-ALL-JOINTS-BE-3DOF
:DEGREES
1937
root 5.91502 13.6352 27.9099 1055.72 70.0657 332.875
lfemur -60.454 3.23969 0.849661
ltibia 59.0127 -0 0
lfoot 1.19146 -0.243354 0.00388796
ltoes -26.3229 0 0
rfemur -6.32955 9.57666 20.2643
rtibia 69.1392 -0 0
rfoot -25.345 -20.0928 0.0385395
rtoes -27.5757 0 0
lowerback 13.6955 5.23356 4.33868
upperback -0.641965 8.00189 3.1956
thorax -8.22654 3.78655 -0.649015
lowerneck -0.4016 15.4769 7.13785
upperneck 6.56714 21.1805 -7.40551
head 3.57112 10.5105 -2.35364
lclavicle 2.06656e-15 -4.97658e-15 -1.68177e-30
lhumerus 76.3726 -34.6569 39.4436
lradius 53.7177 -0 0
lwrist 9.75431 0 0
lhand -11.6052 34.7276 0.00112835
lfingers 7.12502 -0 0
lthumb 19.6689 61.2247 -0.0744996
rclavicle 4.7779e-14 -1.17866e-14 1.97478e-31
rhumerus -40.3967 29.3136 -77.9296
rradius 89.5211 -0 0
rwrist -33.7495 0 0
rhand -11.4626 -43.0964 -0.00678934
rfingers 7.12502 -0 0
rthumb 14.9579 -71.6894 0.0595919
1938
root 5.80277 13.6413 27.9313 1055.12 70.6703 332.224
lfemur -60.3637 1.54336 1.3189
ltibia 58.5402 -0 0
lfoot 1.05328 -0.341417 0.00826032
ltoes -25.9843 0 0
rfemur -6.84457 10.778 20.377
rtibia 69.4942 -0 0
rfoot -25.2215 -19.6135 0.0264249
rtoes -28.2119 0 0
lowerback 13.6601 5.23926 4.21815
upperback -0.649551 7.99159 3.2243
thorax -8.23566 3.78773 -0.548666
lowerneck -0.136704 15.4204 7.22214
upperneck 6.20519 21.1032 -7.57858
head 3.44095 10.4812 -2.45522
lclavicle 3.86606e-15 -3.33365e-15 -1.84271e-30
lhumerus 78.2524 -35.6991 36.1241
lradius 55.6466 -0 0
lwrist 13.5935 0 0
lhand -11.494 34.7549 0.00120907
lfingers 7.12502 -0 0
lthumb 20.4932 61.0622 -0.0515789
rclavicle 4.65672e-14 -1.15295e-14 2.27527e-31
rhumerus -38.8751 30.9699 -77.6189
rradius 89.6653 -0 0
rwrist -33.0312 0 0
rhand -11.197 -43.141 -0.00625774
rfingers 7.12502 0 0
rthumb 15.4637 -71.517 0.0626786
1939
root 5.6853 13.65 27.9573 1054.34 71.2774 331.412
lfemur -60.2879 -0.140816 1.78177
ltibia 58.1863 -0 0
lfoot 0.869175 -0.472075 0.0137179
ltoes -25.664 0 0
rfemur -7.305 11.8533 20.4688
rtibia 69.7148 -0 0
rfoot -25.1209 -19.2226 0.0157803
rtoes -28.9427 0 0
lowerback 13.6678 5.24489 4.10145
upperback -0.604554 7.98659 3.29686
thorax -8.21812 3.79415 -0.406967
lowerneck -0.279369 15.456 7.08333
upperneck 6.18529 21.1464 -7.60244
head 3.44908 10.4959 -2.4309
lclavicle 5.7267e-15 -1.6349e-15 -1.95485e-30
lhumerus 79.8649 -36.4851 33.341
lradius 58.0062 -0 0
lwrist 17.1994 0 0
lhand -11.3805 34.7829 0.00123671
lfingers 7.12502 -0 0
lthumb 21.1688 60.9292 -0.0310467
rclavicle 4.52859e-14 -1.12576e-14 2.53382e-31
rhumerus -37.2888 32.6461 -77.2439
rradius 89.8946 -0 0
rwrist -32.3272 0 0
rhand -10.9431 -43.1836 -0.00555602
rfingers 7.12502 -0 0
rthumb 15.978 -71.3416 0.0642567
1940
root 5.563 13.6587 27.982 1053.68 71.9672 330.707
lfemur -60.2269 -1.78701 2.23212
ltibia 57.9643 -0 0
lfoot 0.644546 -0.631507 0.0198078
ltoes -25.3661 0 0
rfemur -7.70217 12.7811 20.5411
rtibia 69.7906 0 0
rfoot -25.0458 -18.9305 0.00737828
rtoes -29.7505 0 0
lowerback 13.7464 5.37934 4.11913
upperback -0.705862 8.16663 3.17839
thorax -8.34771 3.87081 -0.589473
lowerneck -0.0613573 15.2836 7.36996
upperneck 6.08294 20.9206 -7.69307
head 3.40575 10.3945 -2.52945
lclavicle 7.62402e-15 9.73462e-17 -2.0124e-30
lhumerus 81.1162 -37.0326 31.2163
lradius 60.7426 -0 0
lwrist 20.5138 0 0
lhand -11.2669 34.8108 0.00120907
lfingers 7.12502 -0 0
lthumb 21.6758 60.8296 -0.0146104
rclavicle 4.39506e-14 -1.09743e-14 2.73857e-31
rhumerus -35.6493 34.3218 -76.8029
rradius 90.2001 -0 0
rwrist -31.6521 0 0
rhand -10.7046 -43.2237 -0.00472484
rfingers 7.12502 -0 0
rthumb 16.4951 -71.1654 0.0642567
1941
root 5.43214 13.6735 28.014 1053.04 72.6785 329.899
lfemur -60.1805 -3.36939 2.6638
ltibia 57.8874 0 0
lfoot 0.384814 -0.815868 0.0260695
ltoes -25.0948 0 0
rfemur -8.02701 13.5399 20.5955
rtibia 69.7693 -0 0
rfoot -24.9988 -18.7477 0.00192253
rtoes -30.6184 0 0
lowerback 13.7064 5.37191 3.89044
upperback -0.786957 8.12622 3.21532
thorax -8.45162 3.85889 -0.419759
lowerneck 0.0875733 15.2924 7.32644
upperneck 6.00172 20.9413 -7.73968
head 3.35972 10.4085 -2.55164
lclavicle 9.53357e-15 1.84075e-15 -2.0124e-30
lhumerus 81.9201 -37.3576 29.8653
lradius 63.802 -0 0
lwrist 23.4782 0 0
lhand -11.1557 34.8381 0.00112835
lfingers 7.12502 -0 0
lthumb 21.9945 60.767 -0.00382558
rclavicle 4.25768e-14 -1.06828e-14 2.88032e-31
rhumerus -33.9693 35.977 -76.2966
rradius 90.5727 -0 0
rwrist -31.0203 0 0
rhand -10.4853 -43.2605 -0.00381388
rfingers 7.12502 -0 0
rthumb 17.0094 -70.99 0.0626786
1942
root 5.29839 13.6929 28.0462 1052.25 73.4429 328.994
lfemur -60.1475 -4.86211 3.07055
ltibia 57.8421 -0 0
lfoot 0.0953103 -1.02138 0.0320636
ltoes -24.854 0 0
rfemur -8.2705 14.1083 20.6335
rtibia 69.7075 -0 0
rfoot -24.9825 -18.6844 0
rtoes -31.5292 0 0
lowerback 13.704 5.39532 3.72839
upperback -0.822122 8.12795 3.17044
thorax -8.50376 3.86354 -0.381356
lowerneck -0.0837178 15.1109 7.23887
upperneck 5.91251 20.6615 -7.56508
head 3.31155 10.2685 -2.50523
lclavicle 1.14309e-14 3.573e-15 -1.95485e-30
lhumerus 82.2022 -37.4668 29.3937
lradius 67.1305 -0 0
lwrist 26.0344 0 0
lhand -11.049 34.8643 0.00100107
lfingers 7.12502 0 0
lthumb 22.1052 60.7453 0
rclavicle 4.11799e-14 -1.03864e-14 2.95279e-31
rhumerus -32.2636 37.5921 -75.7286
rradius 91.0037 -0 0
rwrist -30.4461 0 0
rhand -10.2893 -43.2934 -0.00287983
rfingers 7.12502 -0 0
rthumb 17.5152 -70.8176 0.0595919
1943
root 5.15714 13.7159 28.0805 1051.59 74.2962 328.141
lfemur -60.1265 -6.23936 3.44593
ltibia 57.7112 -0 0
lfoot -0.218533 -1.24418 0.0373882
ltoes -24.6479 0 0
rfemur -8.42334 14.4649 20.6561
rtibia 69.6084 -0 0
rfoot -25.0012 -18.7859 0.00251106
rtoes -32.4657 0 0
lowerback 13.6347 5.31938 3.43456
upperback -0.837053 7.97604 3.17306
thorax -8.52356 3.80319 -0.183154
lowerneck -0.170368 15.1643 7.16025
upperneck 5.91626 20.7345 -7.61127
head 3.32882 10.2998 -2.49546
lclavicle 1.32915e-14 5.27175e-15 -1.84271e-30
lhumerus 82.2155 -37.482 29.3569
lradius 70.6744 -0 0
lwrist 28.1241 0 0
lhand -10.9492 34.8889 0.000837707
lfingers 7.12502 -0 0
lthumb 22.0204 60.7905 -0.00507584
rclavicle 3.97752e-14 -1.00884e-14 2.95279e-31
rhumerus -30.5493 39.1479 -75.1051
rradius 91.4839 -0 0
rwrist -29.944 0 0
rhand -10.1202 -43.3218 -0.00198399
rfingers 7.12502 -0 0
rthumb 18.0068 -70.6501 0.0551337
1944
root 5.01203 13.743 28.1192 1050.34 75.1715 326.725
lfemur -60.1154 -7.47534 3.78326
ltibia 57.5021 -0 0
lfoot -0.551313 -1.48044 0.0417006
ltoes -24.4804 0 0
rfemur -8.47633 14.5885 20.6637
rtibia 69.475 -0 0
rfoot -25.0548 -19.077 0.0095309
rtoes -33.4108 0 0
lowerback 13.6221 5.3086 3.33969
upperback -0.867763 7.94125 3.11659
thorax -8.55439 3.78772 -0.184502
lowerneck -0.186969 15.0584 7.17717
upperneck 5.82136 20.5835 -7.63511
head 3.29584 10.2253 -2.51823
lclavicle 1.5091e-14 6.91468e-15 -1.68177e-30
lhumerus 82.2543 -37.5259 29.2499
lradius 74.3797 -0 0
lwrist 29.689 0 0
lhand -10.8585 34.9112 0.00065216
lfingers 7.12502 -0 0
lthumb 21.7771 60.9203 -0.0192655
rclavicle 3.83783e-14 -9.79199e-15 2.88032e-31
rhumerus -28.8466 40.6262 -74.436
rradius 92.0045 -0 0
rwrist -29.5284 0 0
rhand -9.98198 -43.345 -0.00118948
rfingers 7.12502 -0 0
rthumb 18.4785 -70.4894 0.0495049
1945
root 4.86054 13.7752 28.1609 1048.83 76.0892 325.031
lfemur -60.1116 -8.54437 4.07565
ltibia 57.2223 -0 0
lfoot -0.897621 -1.72631 0.044731
ltoes -24.3558 0 0
rfemur -8.51723 14.4785 20.718
rtibia 69.3104 -0 0
rfoot -25.1398 -19.5378 0.0200846
rtoes -34.3473 0 0
lowerback 13.5806 5.24383 3.23591
upperback -0.864107 7.82976 3.06109
thorax -8.53361 3.73753 -0.159893
lowerneck -0.297206 15.0743 7.16482
upperneck 5.84764 20.6004 -7.63951
head 3.32174 10.2298 -2.50631
lclavicle 1.68049e-14 8.47947e-15 -1.48051e-30
lhumerus 82.3168 -37.5963 29.078
lradius 78.1927 -0 0
lwrist 30.6706 0 0
lhand -10.7791 34.9307 0.000460955
lfingers 7.12502 -0 0
lthumb 21.3919 61.1259 -0.0405976
rclavicle 3.70045e-14 -9.50049e-15 2.73857e-31
rhumerus -27.1792 42.0096 -73.735
rradius 92.5565 -0 0
rwrist -29.2137 0 0
rhand -9.87849 -43.3623 -0.000557911
rfingers 7.12502 -0 0
rthumb 18.9246 -70.3375 0.0429639
1946
root 4.70506 13.8078 28.2126 1046.23 76.8879 322.24
lfemur -60.1127 -9.42046 4.31586
ltibia 56.8792 -0 0
lfoot -1.25205 -1.97796 0.0462937
ltoes -24.278 0 0
rfemur -8.63504 14.163 20.8742
rtibia 69.1178 -0 0
rfoot -25.2524 -20.1484 0.033014
rtoes -35.2581 0 0
lowerback 13.5396 5.14739 3.19753
upperback -0.854558 7.69883 3.10892
thorax -8.5136 3.67899 -0.0581327
lowerneck -0.235149 15.0214 7.57908
upperneck 5.70097 20.5603 -8.17957
head 3.36296 10.2078 -2.7164
lclavicle 1.84088e-14 9.94379e-15 -1.24978e-30
lhumerus 82.4014 -37.6908 28.8463
lradius 82.0595 -0 0
lwrist 31.0108 0 0
lhand -10.7134 34.9468 0.000282255
lfingers 7.12502 -0 0
lthumb 20.8815 61.3984 -0.0667307
rclavicle 3.56692e-14 -9.21717e-15 2.53382e-31
rhumerus -25.5743 43.2817 -73.0197
rradius 93.1309 -0 0
rwrist -29.0143 0 0
rhand -9.81357 -43.3732 -0.000145714
rfingers 7.12502 -0 0
rthumb 19.3394 -70.1962 0.0358194
1947
root 4.54444 13.8394 28.249 1043.34 78.0145 319.108
lfemur -60.1159 -10.0781 4.49661
ltibia 56.4802 -0 0
lfoot -1.60918 -2.23153 0.0462937
ltoes -24.2512 0 0
rfemur -8.82299 13.6644 21.1223
rtibia 68.9003 -0 0
rfoot -25.3892 -20.8889 0.0470837
rtoes -36.126 0 0
lowerback 13.5627 4.99797 3.29653
upperback -0.857909 7.50955 3.0305
thorax -8.50827 3.58055 -0.158991
lowerneck -0.553754 15.0376 7.25379
upperneck 5.82157 20.555 -7.91719
head 3.38949 10.1951 -2.57529
lclavicle 1.98782e-14 1.12853e-14 -1.00242e-30
lhumerus 82.5065 -37.807 28.5599
lradius 85.9264 -0 0
lwrist 30.9367 0 0
lhand -10.6637 34.959 0.000134628
lfingers 7.12502 -0 0
lthumb 20.2623 61.7293 -0.0951659
rclavicle 3.43879e-14 -8.94531e-15 2.27527e-31
rhumerus -24.0629 44.4271 -72.3114
rradius 93.7187 -0 0
rwrist -28.9446 0 0
rhand -9.79107 -403.377 0
rfingers 7.12502 -0 0
rthumb 19.7174 -70.0676 0.0284202
1948
root 4.38268 13.8766 28.2993 1039.18 78.9719 314.703
lfemur -60.119 -10.4915 4.61042
ltibia 56.0329 -0 0
lfoot -1.96361 -2.48317 0.044731
ltoes -24.2785 0 0
rfemur -9.07489 13.0048 21.4529
rtibia 68.661 -0 0
rfoot -25.5465 -21.7392 0.061055
rtoes -36.9338 0 0
lowerback 13.5188 4.83368 3.40435
upperback -0.873333 7.30735 3.02377
thorax -8.4884 3.47885 -0.181213
lowerneck -0.60918 15.1284 7.24891
upperneck 5.88374 20.6829 -7.95273
head 3.43004 10.2548 -2.56688
lclavicle 2.11885e-14 1.24817e-14 -7.528e-31
lhumerus 82.6307 -37.9424 28.2237
lradius 89.7394 -0 0
lwrist 30.7243 0 0
lhand -10.6322 34.9668 3.56031e-05
lfingers 7.12502 -0 0
lthumb 19.5511 62.1095 -0.123401
rclavicle 3.31761e-14 -8.68817e-15 1.97478e-31
rhumerus -22.6797 45.4318 -71.6353
rradius 94.3111 -0 0
rwrist -29.0625 0 0
rhand -9.75097 -43.3697 0.000783216
rfingers 7.12502 -0 0
rthumb 20.0527 -69.9535 0.021144
